# xmcd
# Track frame offsets:
# 150
# 14635
# 25696
# 39623
# 51916
# 69443
# 81198
# 93595
# 108058
# 122090
# 140270
# 162195
# 178976
# 192694
# 205537
# 222552
# 235510
# 252018
# 267144
# 279398
# 293296
# 311976
#
# Disc length: 4476 seconds
# Revision: 0
# Processed by: cddbd v1.5.2PL0 Copyright (c) Steve Scherf et al.
# Submitted via: VisiTrax 2.11.3.279 - For more info visit www.synapsa.com
#
DISCID=3a117a16
DTITLE=Rolling Stones The - Lost Treasures From The Brian Jones Era: TheClass
DTITLE=ic Broadcasts: CD2: France and Hawaii 1965-1966 - Live, *Remastered Trac
DTITLE=ks
DYEAR=1965
DGENRE=R&B
TTITLE0=Everybody Needs Somebody To Love - Around And Around* [Live: Paris 196
TTITLE0=5]
TTITLE1=Off The Hook* [Live: Paris 1965]
TTITLE2=Time Is On My Side* [Live: Paris 1965]
TTITLE3=Carol* [Live: Paris 1965]
TTITLE4=It's All Over Now* [Live: Paris 1965]
TTITLE5=Little Red Rooster* [Live: Paris 1965]
TTITLE6=Route 66* [Live: Paris 1965]
TTITLE7=Everybody Needs Somebody To Love* [Live: Paris 1965]
TTITLE8=The Last Time* [Live: Paris 1965]
TTITLE9=I'm Alright* [Live: Paris 1965]
TTITLE10=Hey Crawdaddy* [Live: Paris 1965]
TTITLE11=19th Nervous Breakdown* [Live: Paris 1966]
TTITLE12=Get Off My Cloud* [Live: Paris 1966]
TTITLE13=The Last Time* [Live: Paris 1966]
TTITLE14=Not Fade Away* [Live: Hawaii 1966]
TTITLE15=The Last Time* [Live: Hawaii 1966]
TTITLE16=Paint It Black* [Live: Hawaii 1966]
TTITLE17=Lady Jane* [Live: Hawaii 1966]
TTITLE18=Mother's Little Helper* [Live: Hawaii 1966]
TTITLE19=Get Off Of My Cloud* [Live: Hawaii 1966]
TTITLE20=19th Nervous Breakdown* [Live: Hawaii 1966]
TTITLE21=(I Can't Get No) Satisfaction* [Live: Hawaii 1966]
EXTD=Compilation and ReMastering: AngloAtlantic Records: 2017
EXTT0=
EXTT1=
EXTT2=
EXTT3=
EXTT4=
EXTT5=
EXTT6=
EXTT7=
EXTT8=
EXTT9=
EXTT10=
EXTT11=
EXTT12=
EXTT13=
EXTT14=
EXTT15=
EXTT16=
EXTT17=
EXTT18=
EXTT19=
EXTT20=
EXTT21=
PLAYORDER=
